<svg width="128" height="128" viewBox="0 0 128 128" fill="none" xmlns="http://www.w3.org/2000/svg">
<path d="M39.7 34H34.3L31.15 39.75L28 45.5H34.3L39.7 34Z" fill="black"/>
<path d="M45.1 34L39.7 45.5H45.1L50.5 34H45.1Z" fill="black"/>
<path d="M55.9 34L50.5 45.5H55.9L61.3 34H55.9Z" fill="black"/>
<path d="M66.7 34L61.3 45.5H66.7L72.1 34H66.7Z" fill="black"/>
<path d="M77.05 34L72.1 45.5H77.05L82 34H77.05Z" fill="black"/>
<path d="M86.95 34L82 45.5H86.95L91.9 34H86.95Z" fill="black"/>
<path d="M95.95 34L91.9 45.5H95.95L100.45 34H95.95Z" fill="black"/>
<path d="M19 84C19 89.5228 23.4772 94 29 94H99C104.523 94 109 89.5228 109 84V45.5H95.95H91.9H86.95H82H77.05H72.1H66.7H61.3H55.9H50.5H45.1H39.7H34.3H28H19V84Z" fill="#748E63"/>
<path d="M109 45.5V42.55C109 37.828 105.172 34 100.45 34V34L95.95 45.5H109Z" fill="#748E63"/>
<path d="M91.9 34L86.95 45.5H91.9L95.95 34H91.9Z" fill="#748E63"/>
<path d="M82 34L77.05 45.5H82L86.95 34H82Z" fill="#748E63"/>
<path d="M72.1 34L66.7 45.5H72.1L77.05 34H72.1Z" fill="#748E63"/>
<path d="M61.3 34L55.9 45.5H61.3L66.7 34H61.3Z" fill="#748E63"/>
<path d="M50.5 34L45.1 45.5H50.5L55.9 34H50.5Z" fill="#748E63"/>
<path d="M39.7 34L34.3 45.5H39.7L45.1 34H39.7Z" fill="#748E63"/>
<path d="M29 34C23.4772 34 19 38.4772 19 44V45.5H28L31.15 39.75L34.3 34H29Z" fill="#748E63"/>
<path d="M19 45.5V84C19 89.5228 23.4772 94 29 94H99C104.523 94 109 89.5228 109 84V45.5M19 45.5V44C19 38.4772 23.4772 34 29 34H34.3M19 45.5H28M109 45.5V42.55C109 37.828 105.172 34 100.45 34V34M109 45.5H95.95M34.3 34H39.7M34.3 34L31.15 39.75L28 45.5M28 45.5H34.3M39.7 34L34.3 45.5M39.7 34H45.1M34.3 45.5H39.7M45.1 34L39.7 45.5M45.1 34H50.5M39.7 45.5H45.1M50.5 34L45.1 45.5M50.5 34H55.9M45.1 45.5H50.5M55.9 34L50.5 45.5M55.9 34H61.3M50.5 45.5H55.9M61.3 34L55.9 45.5M61.3 34H66.7M55.9 45.5H61.3M66.7 34L61.3 45.5M66.7 34H72.1M61.3 45.5H66.7M72.1 34L66.7 45.5M72.1 34H77.05M66.7 45.5H72.1M77.05 34L72.1 45.5M77.05 34H82M72.1 45.5H77.05M82 34L77.05 45.5M82 34H86.95M77.05 45.5H82M86.95 34L82 45.5M86.95 34H91.9M82 45.5H86.95M91.9 34L86.95 45.5M91.9 34H95.95M86.95 45.5H91.9M95.95 34L91.9 45.5M95.95 34H100.45M91.9 45.5H95.95M100.45 34L95.95 45.5" stroke="black" stroke-width="0.5"/>
<path d="M83.75 70C83.75 80.9076 74.9076 89.75 64 89.75C53.0924 89.75 44.25 80.9076 44.25 70C44.25 59.0924 53.0924 50.25 64 50.25C74.9076 50.25 83.75 59.0924 83.75 70Z" fill="black" stroke="black" stroke-width="0.5"/>
<circle cx="53.3506" cy="73.154" r="5.83534" fill="#748E63" stroke="black" stroke-width="0.5"/>
<path d="M63.75 60.9833C63.75 64.2061 61.1374 66.8186 57.9147 66.8186C54.6919 66.8186 52.0793 64.2061 52.0793 60.9833C52.0793 57.7605 54.6919 55.148 57.9147 55.148C61.1374 55.148 63.75 57.7605 63.75 60.9833Z" fill="#748E63" stroke="black" stroke-width="0.5"/>
<circle cx="71.6067" cy="60.9833" r="5.83534" fill="#748E63" stroke="black" stroke-width="0.5"/>
<circle cx="74.6493" cy="73.154" r="5.83534" fill="#748E63" stroke="black" stroke-width="0.5"/>
<circle cx="64" cy="80.7607" r="5.83534" fill="#748E63" stroke="black" stroke-width="0.5"/>
</svg>
